<svg xmlns="http://www.w3.org/2000/svg" xmlns:xlink="http://www.w3.org/1999/xlink" width="1366" zoomAndPan="magnify" viewBox="0 0 1024.5 222.749995" height="768" preserveAspectRatio="xMidYMid meet" version="1.0"><defs><g/></defs><g fill="#2196f3" fill-opacity="1"><g transform="translate(162.332643, 168.805502)"><g><path d="M 15.875 -83.5625 C 26.09375 -106.125 40.675781 -122.15625 59.625 -131.65625 C 72.582031 -138.019531 82.210938 -141.203125 88.515625 -141.203125 C 91.785156 -141.203125 95.457031 -135.859375 99.53125 -125.171875 L 99.53125 -123.875 C 99.53125 -122.09375 94.375 -121.109375 84.0625 -120.921875 C 78.144531 -119.441406 70.675781 -115.675781 61.65625 -109.625 C 48.144531 -100.425781 41.390625 -92.367188 41.390625 -85.453125 C 30.023438 -61.203125 26.164062 -42.039062 29.8125 -27.96875 C 35.925781 -11.050781 46.203125 -2.71875 60.640625 -2.96875 C 64.097656 -4.070312 66.257812 -5.273438 67.125 -6.578125 L 69.4375 -10.734375 C 70.914062 -18.578125 75.25 -22.757812 82.4375 -23.28125 C 89.632812 -23.8125 91.472656 -18.738281 87.953125 -8.0625 L 82.125 2.3125 C 72.675781 13.851562 63.507812 19.625 54.625 19.625 C 46.476562 19.625 37.34375 15.457031 27.21875 7.125 C 18.582031 -0.644531 14.539062 -4.992188 15.09375 -5.921875 C 10.34375 -9.316406 6.144531 -17.1875 2.5 -29.53125 C 1.207031 -42.988281 5.664062 -61 15.875 -83.5625 Z M 15.875 -83.5625 "/></g></g></g><g fill="#2196f3" fill-opacity="1"><g transform="translate(258.780309, 168.805502)"><g><path d="M 8.421875 -84.15625 L 10.1875 -84.15625 C 15.1875 -84.15625 20.769531 -79.375 26.9375 -69.8125 C 29.039062 -63.457031 30.429688 -60.28125 31.109375 -60.28125 C 39.066406 -69.84375 45.828125 -74.625 51.390625 -74.625 C 61.390625 -74.625 65.367188 -70.8125 63.328125 -63.1875 C 61.296875 -55.5625 53.953125 -52.800781 41.296875 -54.90625 C 37.523438 -54.90625 33.914062 -40.738281 30.46875 -12.40625 C 27.132812 -9.8125 20.15625 -7.035156 9.53125 -4.078125 C 4.53125 -4.078125 1.539062 -7.472656 0.5625 -14.265625 C 6.175781 -43.085938 8.984375 -61.601562 8.984375 -69.8125 C 8.984375 -71.789062 8.394531 -75.585938 7.21875 -81.203125 L 7.21875 -82.953125 C 7.34375 -83.753906 7.742188 -84.15625 8.421875 -84.15625 Z M 8.421875 -84.15625 "/></g></g></g><g fill="#2196f3" fill-opacity="1"><g transform="translate(315.792395, 168.805502)"><g><path d="M 25.28125 -110.265625 L 27.21875 -110.265625 C 31.96875 -110.265625 34.898438 -106.84375 36.015625 -100 L 36.015625 -99.53125 C 36.015625 -94.40625 32.929688 -91.628906 26.765625 -91.203125 C 22.253906 -91.203125 18.828125 -94.285156 16.484375 -100.453125 L 16.484375 -102.40625 C 16.484375 -106.601562 19.414062 -109.222656 25.28125 -110.265625 Z M 3.421875 -86.5625 L 4.8125 -86.5625 C 18.582031 -86.5625 28.828125 -83.910156 35.546875 -78.609375 L 35.546875 -77.21875 C 34.003906 -72.53125 31.847656 -61.820312 29.078125 -45.09375 C 25.617188 -36.320312 22.960938 -26.535156 21.109375 -15.734375 L 20.1875 -15.28125 L 19.265625 -15.28125 C 18.273438 -15.28125 15.648438 -20.863281 11.390625 -32.03125 C 8.859375 -38.882812 7.59375 -44.316406 7.59375 -48.328125 L 7.59375 -51.578125 C 7.59375 -54.109375 8.703125 -59.382812 10.921875 -67.40625 C 11.847656 -70.738281 12.3125 -73.546875 12.3125 -75.828125 L 12.3125 -77.21875 C 12.3125 -77.894531 9.039062 -80.519531 2.5 -85.09375 L 2.5 -85.546875 C 2.625 -86.222656 2.929688 -86.5625 3.421875 -86.5625 Z M 3.421875 -86.5625 "/></g></g></g><g fill="#2196f3" fill-opacity="1"><g transform="translate(347.254653, 168.805502)"><g><path d="M 62.5 -80.359375 L 62.3125 -78.609375 C 61.820312 -73.671875 53.085938 -70.984375 36.109375 -70.546875 C 27.347656 -68.328125 27.410156 -63.820312 36.296875 -57.03125 C 45.179688 -50.238281 49.347656 -44.097656 48.796875 -38.609375 C 47.804688 -28.609375 37.28125 -19.226562 17.21875 -10.46875 C 10.675781 -8.050781 5.335938 -9.554688 1.203125 -14.984375 C -2.929688 -20.421875 2.222656 -27.335938 16.671875 -35.734375 C 25.242188 -41.410156 28.851562 -45.742188 27.5 -48.734375 C 26.144531 -51.734375 21.421875 -54.609375 13.328125 -57.359375 C 5.242188 -60.109375 2.898438 -65.257812 6.296875 -72.8125 C 9.691406 -80.375 15.476562 -83.878906 23.65625 -83.328125 C 31.832031 -82.773438 39.992188 -82.097656 48.140625 -81.296875 C 50.117188 -81.046875 53.976562 -81.226562 59.71875 -81.84375 L 61.484375 -81.75 C 62.222656 -81.507812 62.5625 -81.046875 62.5 -80.359375 Z M 62.5 -80.359375 "/></g></g></g><g fill="#2196f3" fill-opacity="1"><g transform="translate(405.192454, 168.805502)"><g><path d="M 65.640625 -57.21875 C 64.648438 -52.832031 58.335938 -49.726562 46.703125 -47.90625 C 35.066406 -46.09375 27.832031 -43.148438 25 -39.078125 C 20.863281 -33.023438 23.054688 -25.738281 31.578125 -17.21875 C 44.347656 -8.582031 53.019531 -4.265625 57.59375 -4.265625 C 60.925781 -5.066406 62.992188 -5.925781 63.796875 -6.84375 L 65.828125 -9.8125 C 66.378906 -12.71875 66.503906 -15.925781 66.203125 -19.4375 C 64.160156 -26.351562 63.878906 -30.921875 65.359375 -33.140625 L 65.640625 -33.515625 C 65.953125 -33.953125 66.382812 -34.195312 66.9375 -34.25 L 73.796875 -34.25 C 82.253906 -34.25 86.851562 -29.066406 87.59375 -18.703125 C 88.519531 -14.441406 87.59375 -8.515625 84.8125 -0.921875 L 79.8125 6.484375 C 71.164062 14.628906 62.398438 18.703125 53.515625 18.703125 C 45.367188 18.703125 35.988281 15.738281 25.375 9.8125 C 16.300781 4.320312 11.976562 1.238281 12.40625 0.5625 C 7.46875 -1.851562 2.773438 -7.410156 -1.671875 -16.109375 C -4.078125 -26.722656 -2.898438 -35.488281 1.859375 -42.40625 C 6.359375 -49.007812 16.695312 -56.203125 32.875 -63.984375 C 31.570312 -64.660156 30.023438 -65.460938 28.234375 -66.390625 C 19.597656 -72.253906 15.773438 -78.796875 16.765625 -86.015625 L 16.84375 -86.75 C 18.820312 -101.75 35.335938 -117.179688 66.390625 -133.046875 C 78.921875 -138.484375 88.054688 -141.203125 93.796875 -141.203125 C 96.753906 -141.203125 99.46875 -136.632812 101.9375 -127.5 L 101.75 -126.375 C 101.5625 -124.832031 96.75 -123.972656 87.3125 -123.796875 C 81.8125 -122.554688 74.617188 -119.34375 65.734375 -114.15625 C 52.273438 -106.257812 45.175781 -99.347656 44.4375 -93.421875 C 42.40625 -83.796875 45.675781 -76.453125 54.25 -71.390625 C 62.832031 -66.328125 66.628906 -61.601562 65.640625 -57.21875 Z M 65.640625 -57.21875 "/></g></g></g><g fill="#2196f3" fill-opacity="1"><g transform="translate(492.938372, 168.805502)"><g><path d="M 62.5 -80.359375 L 62.3125 -78.609375 C 61.820312 -73.671875 53.085938 -70.984375 36.109375 -70.546875 C 27.347656 -68.328125 27.410156 -63.820312 36.296875 -57.03125 C 45.179688 -50.238281 49.347656 -44.097656 48.796875 -38.609375 C 47.804688 -28.609375 37.28125 -19.226562 17.21875 -10.46875 C 10.675781 -8.050781 5.335938 -9.554688 1.203125 -14.984375 C -2.929688 -20.421875 2.222656 -27.335938 16.671875 -35.734375 C 25.242188 -41.410156 28.851562 -45.742188 27.5 -48.734375 C 26.144531 -51.734375 21.421875 -54.609375 13.328125 -57.359375 C 5.242188 -60.109375 2.898438 -65.257812 6.296875 -72.8125 C 9.691406 -80.375 15.476562 -83.878906 23.65625 -83.328125 C 31.832031 -82.773438 39.992188 -82.097656 48.140625 -81.296875 C 50.117188 -81.046875 53.976562 -81.226562 59.71875 -81.84375 L 61.484375 -81.75 C 62.222656 -81.507812 62.5625 -81.046875 62.5 -80.359375 Z M 62.5 -80.359375 "/></g></g></g><g fill="#2196f3" fill-opacity="1"><g transform="translate(550.876173, 168.805502)"><g><path d="M 21.9375 -78.515625 C 20.894531 -57.898438 23.304688 -47.835938 29.171875 -48.328125 C 38.054688 -48.941406 43.113281 -51.195312 44.34375 -55.09375 L 44.90625 -58.515625 C 45.457031 -70.796875 39.8125 -78.140625 27.96875 -80.546875 C 25.550781 -81.722656 23.539062 -81.046875 21.9375 -78.515625 Z M 8.984375 -87.40625 L 8.890625 -87.40625 C 8.828125 -86.90625 8.859375 -86.90625 8.984375 -87.40625 Z M 8.984375 -87.40625 C 9.046875 -87.644531 9.140625 -88.046875 9.265625 -88.609375 C 9.628906 -90.148438 10.460938 -91.878906 11.765625 -93.796875 L 12.875 -94.34375 L 15.640625 -94.625 C 17.679688 -94.8125 19.566406 -93.734375 21.296875 -91.390625 L 22.40625 -91.484375 C 39.382812 -90.117188 49.96875 -86.660156 54.15625 -81.109375 C 61.570312 -71.359375 64.535156 -62.097656 63.046875 -53.328125 C 62.679688 -50.921875 61.785156 -48.328125 60.359375 -45.546875 C 54.617188 -35.242188 48.941406 -29.84375 43.328125 -29.34375 C 35.671875 -28.789062 27.988281 -31.234375 20.28125 -36.671875 L 19.34375 -36.578125 L 18.703125 -32.6875 C 15.554688 -24.539062 14.351562 -11.488281 15.09375 6.46875 C 15.832031 24.4375 16.109375 33.976562 15.921875 35.09375 C 14.929688 37.125 13.945312 38.296875 12.96875 38.609375 L 12.5 38.703125 C 10.519531 38.828125 7.832031 36.359375 4.4375 31.296875 C -1.664062 19.015625 -4.410156 4.601562 -3.796875 -11.9375 C -3.179688 -28.476562 1.320312 -53.507812 9.71875 -87.03125 L 9.8125 -87.5 Z M 8.984375 -87.40625 "/></g></g></g><g fill="#2196f3" fill-opacity="1"><g transform="translate(611.776275, 168.805502)"><g><path d="M 37.125 -92.03125 C 44.039062 -92.03125 51.570312 -86.132812 59.71875 -74.34375 C 59.71875 -73.238281 60.054688 -71.789062 60.734375 -70 C 58.828125 -61.476562 51.328125 -52.894531 38.234375 -44.25 C 35.023438 -43.507812 32.679688 -43.140625 31.203125 -43.140625 L 30.734375 -43.140625 C 30.179688 -43.140625 29.628906 -43.695312 29.078125 -44.8125 C 29.078125 -46.90625 32.84375 -53.878906 40.375 -65.734375 C 41.789062 -69.316406 42.5 -72.34375 42.5 -74.8125 L 42.5 -75.359375 C 42.5 -80.242188 39.8125 -83.640625 34.4375 -85.546875 C 28.570312 -84.066406 24.992188 -72.429688 23.703125 -50.640625 C 23.703125 -35.640625 27.835938 -28.140625 36.109375 -28.140625 L 37.125 -28.140625 C 52.125 -31.359375 60.890625 -32.96875 63.421875 -32.96875 L 63.984375 -32.96875 C 65.085938 -32.96875 65.640625 -32.253906 65.640625 -30.828125 C 65.640625 -28.054688 59.191406 -23.210938 46.296875 -16.296875 C 42.523438 -14.140625 37.675781 -12.535156 31.75 -11.484375 C 19.46875 -11.484375 10.519531 -19.351562 4.90625 -35.09375 C 3.851562 -39.59375 3.144531 -44.625 2.78125 -50.1875 C 2.78125 -70.0625 11.019531 -83.484375 27.5 -90.453125 C 31.144531 -91.503906 34.351562 -92.03125 37.125 -92.03125 Z M 37.125 -92.03125 "/></g></g></g><g fill="#2196f3" fill-opacity="1"><g transform="translate(673.509455, 168.805502)"><g><path d="M 25.28125 -110.265625 L 27.125 -110.265625 C 31.875 -110.265625 34.835938 -106.84375 36.015625 -100 L 36.015625 -99.53125 C 36.015625 -94.40625 32.898438 -91.628906 26.671875 -91.203125 C 22.222656 -91.203125 18.828125 -94.285156 16.484375 -100.453125 L 16.484375 -102.40625 C 16.484375 -106.601562 19.414062 -109.222656 25.28125 -110.265625 Z M 10.734375 -83.984375 L 12.125 -83.984375 C 20.957031 -85.703125 28.765625 -83.910156 35.546875 -78.609375 L 35.546875 -77.21875 C 34.003906 -72.53125 31.816406 -61.820312 28.984375 -45.09375 C 25.585938 -36.320312 21.296875 -15.054688 16.109375 18.703125 L 15.1875 19.171875 L 14.265625 19.171875 C 8.148438 19.171875 4.984375 10.757812 4.765625 -6.0625 C 4.546875 -22.882812 5.488281 -36.972656 7.59375 -48.328125 L 7.59375 -51.578125 C 7.59375 -54.109375 8.671875 -59.382812 10.828125 -67.40625 C 11.753906 -70.738281 12.21875 -73.546875 12.21875 -75.828125 L 12.21875 -77.21875 C 12.21875 -77.894531 11.414062 -79.65625 9.8125 -82.5 L 9.8125 -82.953125 C 9.875 -83.640625 10.179688 -83.984375 10.734375 -83.984375 Z M 10.734375 -83.984375 "/></g></g></g><g fill="#2196f3" fill-opacity="1"><g transform="translate(713.673487, 168.805502)"><g><path d="M 37.125 -92.03125 C 44.039062 -92.03125 51.570312 -86.132812 59.71875 -74.34375 C 59.71875 -73.238281 60.054688 -71.789062 60.734375 -70 C 58.828125 -61.476562 51.328125 -52.894531 38.234375 -44.25 C 35.023438 -43.507812 32.679688 -43.140625 31.203125 -43.140625 L 30.734375 -43.140625 C 30.179688 -43.140625 29.628906 -43.695312 29.078125 -44.8125 C 29.078125 -46.90625 32.84375 -53.878906 40.375 -65.734375 C 41.789062 -69.316406 42.5 -72.34375 42.5 -74.8125 L 42.5 -75.359375 C 42.5 -80.242188 39.8125 -83.640625 34.4375 -85.546875 C 28.570312 -84.066406 24.992188 -72.429688 23.703125 -50.640625 C 23.703125 -35.640625 27.835938 -28.140625 36.109375 -28.140625 L 37.125 -28.140625 C 52.125 -31.359375 60.890625 -32.96875 63.421875 -32.96875 L 63.984375 -32.96875 C 65.085938 -32.96875 65.640625 -32.253906 65.640625 -30.828125 C 65.640625 -28.054688 59.191406 -23.210938 46.296875 -16.296875 C 42.523438 -14.140625 37.675781 -12.535156 31.75 -11.484375 C 19.46875 -11.484375 10.519531 -19.351562 4.90625 -35.09375 C 3.851562 -39.59375 3.144531 -44.625 2.78125 -50.1875 C 2.78125 -70.0625 11.019531 -83.484375 27.5 -90.453125 C 31.144531 -91.503906 34.351562 -92.03125 37.125 -92.03125 Z M 37.125 -92.03125 "/></g></g></g><g fill="#2196f3" fill-opacity="1"><g transform="translate(775.406666, 168.805502)"><g><path d="M 10.734375 -135.734375 L 12.125 -135.734375 C 20.957031 -137.953125 28.765625 -135.640625 35.546875 -128.796875 L 35.546875 -126.9375 C 34.003906 -120.882812 31.816406 -106.992188 28.984375 -85.265625 C 25.585938 -73.847656 21.296875 -46.226562 16.109375 -2.40625 L 15.1875 -1.859375 L 14.265625 -1.859375 C 8.148438 -1.859375 4.984375 -12.765625 4.765625 -34.578125 C 4.546875 -56.398438 5.488281 -74.6875 7.59375 -89.4375 L 7.59375 -93.703125 C 7.59375 -96.972656 8.671875 -103.820312 10.828125 -114.25 C 11.753906 -118.570312 12.21875 -122.210938 12.21875 -125.171875 L 12.21875 -126.9375 C 12.21875 -127.800781 11.414062 -130.085938 9.8125 -133.796875 L 9.8125 -134.4375 C 9.875 -135.300781 10.179688 -135.734375 10.734375 -135.734375 Z M 10.734375 -135.734375 "/></g></g></g><g fill="#00bcd4" fill-opacity="1"><g transform="translate(22.57459, 180.277201)"><g><path d="M 95.046875 -21.59375 L 9.28125 -59.265625 L 9.28125 -68 L 95.046875 -110.75 L 95.046875 -97.453125 L 25.25 -64.34375 L 95.046875 -35.078125 Z M 95.046875 -21.59375 "/></g></g></g><g fill="#00bcd4" fill-opacity="1"><g transform="translate(842.887983, 169.510844)"><g><path d="M 65.234375 -130.484375 L 16.59375 0 L 1.78125 0 L 50.421875 -130.484375 Z M 65.234375 -130.484375 "/></g></g></g><g fill="#00bcd4" fill-opacity="1"><g transform="translate(909.984098, 169.510844)"><g><path d="M 9.28125 -35.078125 L 79.15625 -64.171875 L 9.28125 -97.453125 L 9.28125 -110.75 L 95.046875 -68 L 95.046875 -59.265625 L 9.28125 -21.59375 Z M 9.28125 -35.078125 "/></g></g></g></svg>